<?xml version="1.0" encoding="iso-8859-1"?>
<!-- Generator: Adobe Illustrator 19.0.0, SVG Export Plug-In . SVG Version: 6.00 Build 0)  -->
<svg version="1.1" id="Capa_1" xmlns="http://www.w3.org/2000/svg" xmlns:xlink="http://www.w3.org/1999/xlink" x="0px" y="0px"
	 viewBox="0 0 511.999 511.999" style="enable-background:new 0 0 511.999 511.999;" xml:space="preserve">
<g>
	<g>
		<path d="M310.467,81.701H92.595c-4.406,0-8.377,2.653-10.066,6.727c-1.683,4.069-0.752,8.753,2.364,11.869l81.702,81.702
			c4.248,4.254,11.155,4.254,15.404,0c4.254-4.254,4.254-11.15,0-15.404l-63.101-63.107h191.57c54.06,0,98.043,43.983,98.043,98.043
			v190.638c0,54.06-43.983,98.043-98.043,98.043h-136.17c-6.013,0-10.894,4.88-10.894,10.894s4.88,10.894,10.894,10.894h136.17
			c66.075,0,119.83-53.755,119.83-119.83V201.531C430.297,135.455,376.542,81.701,310.467,81.701z"/>
	</g>
</g>
<g>
	<g>
		<path d="M181.999,3.19c-4.249-4.254-11.155-4.254-15.404,0L84.893,84.893c-4.254,4.254-4.254,11.15,0,15.404
			c2.124,2.13,4.913,3.192,7.702,3.192s5.578-1.062,7.702-3.192l81.702-81.702C186.253,14.34,186.253,7.444,181.999,3.19z"/>
	</g>
</g>
<g>
</g>
<g>
</g>
<g>
</g>
<g>
</g>
<g>
</g>
<g>
</g>
<g>
</g>
<g>
</g>
<g>
</g>
<g>
</g>
<g>
</g>
<g>
</g>
<g>
</g>
<g>
</g>
<g>
</g>
</svg>
